<svg height="70" viewBox="0 0 140 70" width="140" xmlns="http://www.w3.org/2000/svg"><path d="m6.33 44v-16.65h-5.58v-3.33h14.94v3.33h-5.58v16.65zm12.81-5.16c0 1.77.63 2.46 2.85 2.46 1.41 0 2.88-.21 4.47-.69l.57 2.76c-1.65.63-3.63.93-5.37.93-4.59 0-6.18-2.13-6.18-5.64v-3.87c0-3.09 1.38-5.7 6.06-5.7s5.73 2.73 5.73 5.88v3.12h-8.13zm0-4.41v.72h4.65v-.72c0-1.38-.42-2.34-2.22-2.34s-2.43.96-2.43 2.34zm21.24 5.31c0 2.82-.87 4.56-5.28 4.56-1.56 0-3.69-.36-5.04-.84l.51-2.79c1.23.36 2.85.63 4.35.63 1.62 0 1.86-.36 1.86-1.47 0-.9-.18-1.35-2.55-1.92-3.57-.87-3.99-1.77-3.99-4.59 0-2.94 1.29-4.23 5.46-4.23 1.35 0 3.12.18 4.38.51l-.36 2.91c-1.11-.21-2.88-.42-4.02-.42-1.59 0-1.86.36-1.86 1.26 0 1.17.09 1.26 2.07 1.77 4.08 1.08 4.47 1.62 4.47 4.62zm13.41 0c0 2.82-.87 4.56-5.28 4.56-1.56 0-3.69-.36-5.04-.84l.51-2.79c1.23.36 2.85.63 4.35.63 1.62 0 1.86-.36 1.86-1.47 0-.9-.18-1.35-2.55-1.92-3.57-.87-3.99-1.77-3.99-4.59 0-2.94 1.29-4.23 5.46-4.23 1.35 0 3.12.18 4.38.51l-.36 2.91c-1.11-.21-2.88-.42-4.02-.42-1.59 0-1.86.36-1.86 1.26 0 1.17.09 1.26 2.07 1.77 4.08 1.08 4.47 1.62 4.47 4.62zm6.6-.9c0 1.77.63 2.46 2.85 2.46 1.41 0 2.88-.21 4.47-.69l.57 2.76c-1.65.63-3.63.93-5.37.93-4.59 0-6.18-2.13-6.18-5.64v-3.87c0-3.09 1.38-5.7 6.06-5.7s5.73 2.73 5.73 5.88v3.12h-8.13zm0-4.41v.72h4.65v-.72c0-1.38-.42-2.34-2.22-2.34s-2.43.96-2.43 2.34zm18.6-5.34.36 3.36c-1.41.63-2.55 1.29-3.87 2.13v9.42h-3.66v-14.61h3.09l.24 1.62c.81-.54 2.55-1.56 3.84-1.92zm8.61 15.21c-4.59 0-6.3-1.68-6.3-5.61v-3.99c0-3.93 1.71-5.61 6.3-5.61 1.02 0 2.49.18 3.57.54l-.45 3c-.99-.27-2.31-.39-3.03-.39-2.1 0-2.73.63-2.73 2.43v4.05c0 1.8.63 2.43 2.73 2.43.93 0 1.98-.12 3.03-.39l.45 3c-.96.33-2.37.54-3.57.54zm6.78-14.91h3.66v10.2c0 .78.33 1.17 1.17 1.17.9 0 2.49-.54 3.81-1.23v-10.14h3.66v14.61h-2.79l-.36-1.23c-1.83.9-4.14 1.53-5.85 1.53-2.43 0-3.3-1.71-3.3-4.32zm28.89 4.71v4.29c0 3.54-1.08 5.91-6.72 5.91-1.47 0-3.84-.15-5.67-.51v-20.37l3.66-.51v7.05c1.08-.45 2.73-.87 4.32-.87 3.15 0 4.41 1.92 4.41 5.01zm-8.73-1.05v8.01c.66.09 1.41.12 2.19.12 2.4 0 2.88-.96 2.88-2.67v-4.5c0-1.17-.51-1.8-1.86-1.8-1.02 0-2.31.42-3.21.84zm15.18 5.79c0 1.77.63 2.46 2.85 2.46 1.41 0 2.88-.21 4.47-.69l.57 2.76c-1.65.63-3.63.93-5.37.93-4.59 0-6.18-2.13-6.18-5.64v-3.87c0-3.09 1.38-5.7 6.06-5.7s5.73 2.73 5.73 5.88v3.12h-8.13zm0-4.41v.72h4.65v-.72c0-1.38-.42-2.34-2.22-2.34s-2.43.96-2.43 2.34z" fill="#fff"/></svg>